<mxfile host="app.diagrams.net" modified="2023-09-07T03:36:29.688Z" agent="Mozilla/5.0 (Macintosh; Intel Mac OS X 10_15_7) AppleWebKit/537.36 (KHTML, like Gecko) Chrome/116.0.0.0 Safari/537.36" version="21.7.2" etag="SWYO5_X39Xxv4O5q4h5Y" type="github">
  <diagram name="第 1 页" id="JNKsbirSdEQGxh5tb0sy">
    <mxGraphModel>
      <root>
        <mxCell id="0" />
        <mxCell id="1" parent="0" />
      </root>
    </mxGraphModel>
  </diagram>
</mxfile>
